<?xml version="1.0" encoding="utf-8"?>
<!-- Generator: Adobe Illustrator 21.1.0, SVG Export Plug-In . SVG Version: 6.00 Build 0)  -->
<svg version="1.1" id="Layer_1" xmlns="http://www.w3.org/2000/svg" xmlns:xlink="http://www.w3.org/1999/xlink" x="0px" y="0px"
	 viewBox="0 0 500 500" style="enable-background:new 0 0 500 500;" xml:space="preserve">
<g>
	<path d="M60.4,107.7c-3.4,0-6.5-0.2-9.4-0.7c-2.9-0.5-5.5-1.3-7.9-2.5c-2.4-1.2-4.5-2.8-6.3-4.7c-1.8-2-3.4-4.5-4.7-7.5
		c-1.3-3-2.2-6.6-2.9-10.7c-0.7-4.1-1-8.9-1-14.4c0-8.2,0.7-14.9,2.2-20.2c1.5-5.3,3.6-9.5,6.3-12.5c2.8-3,6.1-5.2,10.1-6.3
		c4-1.2,8.5-1.8,13.5-1.8c3.3,0,6.4,0.3,9.3,0.8c2.9,0.5,5.5,1.4,7.9,2.6c2.4,1.2,4.5,2.8,6.3,4.8c1.8,2,3.4,4.5,4.6,7.6
		c1.3,3,2.2,6.6,2.9,10.7c0.7,4.1,1,8.9,1,14.4c0,4.4-0.2,8.4-0.7,11.9c-0.4,3.5-1.1,6.7-1.9,9.5c-0.8,2.8-1.9,5.2-3.1,7.2
		c-1.2,2-2.6,3.8-4.2,5.2l8,11.2H78.5l-4.5-6.4c-2,0.6-4.1,1.1-6.4,1.4C65.3,107.5,62.9,107.7,60.4,107.7z M60.4,95.6
		c1.1,0,2.1,0,3.1-0.1c1-0.1,1.9-0.2,2.7-0.3l-8.9-12.7h11.8l5.4,7.9c1.5-2.1,2.6-5,3.2-8.8s0.9-8.5,0.9-14.4
		c0-5.7-0.3-10.4-0.8-14.1c-0.6-3.7-1.5-6.6-2.9-8.8c-1.4-2.2-3.3-3.7-5.6-4.5c-2.4-0.9-5.3-1.3-8.9-1.3c-3.6,0-6.5,0.4-8.9,1.3
		c-2.4,0.9-4.2,2.4-5.6,4.5c-1.4,2.2-2.4,5.1-2.9,8.8c-0.6,3.7-0.8,8.4-0.8,14.1c0,5.7,0.3,10.3,0.8,14c0.6,3.7,1.5,6.6,2.9,8.7
		c1.4,2.1,3.3,3.6,5.6,4.5C53.8,95.2,56.8,95.6,60.4,95.6z"/>
	<path d="M136.4,28h13v52.2c0,3.1,0.3,5.7,0.8,7.7c0.5,2,1.4,3.6,2.7,4.7s2.9,2,4.9,2.4c2,0.5,4.5,0.7,7.4,0.7
		c2.6,0,4.9-0.2,6.9-0.7c2-0.5,3.6-1.3,4.9-2.4s2.3-2.7,2.9-4.7c0.6-2,1-4.6,1-7.7V28h13v52.9c0,4.6-0.5,8.5-1.6,11.9
		c-1,3.4-2.7,6.1-5,8.3c-2.3,2.2-5.3,3.9-8.9,4.9c-3.6,1.1-8,1.6-13.2,1.6c-5.2,0-9.6-0.5-13.2-1.6c-3.6-1.1-6.6-2.7-8.9-4.9
		c-2.3-2.2-4-4.9-5.1-8.3c-1.1-3.3-1.6-7.3-1.6-11.8V28z"/>
	<path d="M241.5,28h46.9v12.2h-33.8v20.5H283v12h-28.3v21.2h34.7V106h-47.9V28z"/>
	<path d="M329,94.4c1.9,0.3,3.9,0.5,6,0.7c1.9,0.2,4,0.3,6.4,0.4c2.4,0.1,4.9,0.2,7.6,0.2c3.5,0,6.3-0.2,8.4-0.7
		c2.1-0.5,3.7-1.1,4.8-2c1.1-0.9,1.8-2,2.1-3.3c0.3-1.3,0.5-2.8,0.5-4.5c0-1.3-0.1-2.6-0.2-3.7c-0.1-1.1-0.4-2.1-0.9-3
		c-0.5-0.9-1.1-1.6-2-2.3c-0.9-0.6-2.1-1.2-3.6-1.6L342,70.4c-2.5-0.7-4.6-1.5-6.4-2.7c-1.8-1.1-3.2-2.5-4.2-4.2
		c-1.1-1.7-1.9-3.8-2.4-6.2c-0.5-2.4-0.7-5.3-0.7-8.6c0-3.9,0.6-7.2,1.8-10c1.2-2.8,2.8-5.1,4.9-7c2.1-1.8,4.7-3.2,7.7-4
		c3-0.9,6.4-1.3,10.1-1.3c3.1,0,5.9,0.2,8.5,0.5c2.6,0.3,4.8,0.7,6.6,1.1c2.2,0.5,4.2,1,6,1.6v10.1c-1.6-0.2-3.4-0.4-5.2-0.6
		c-1.6-0.2-3.3-0.3-5.3-0.5c-2-0.1-4-0.2-6-0.2c-3.2,0-5.9,0.1-8,0.3s-3.7,0.7-4.9,1.4c-1.2,0.7-2,1.7-2.5,3c-0.5,1.3-0.7,3-0.7,5.1
		c0,1.2,0.1,2.2,0.2,3.1c0.1,0.9,0.4,1.7,0.9,2.4c0.5,0.7,1.1,1.3,2,1.8c0.9,0.5,2,1,3.5,1.4l14.8,4.3c1.9,0.5,3.6,1.1,5.1,1.7
		s2.8,1.3,3.9,2.1c1.1,0.8,2,1.8,2.8,2.9c0.8,1.1,1.4,2.4,1.9,3.9c0.5,1.5,0.8,3.3,1,5.3c0.2,2,0.3,4.4,0.3,7.1
		c0,4.2-0.4,7.7-1.1,10.7c-0.7,3-2.1,5.4-4,7.3c-2,1.9-4.7,3.3-8.1,4.2c-3.4,0.9-7.9,1.3-13.4,1.3c-4.2,0-7.7-0.2-10.5-0.6
		c-2.8-0.4-5.1-0.8-6.8-1.3c-2-0.5-3.6-1.2-4.8-1.9V94.4z"/>
	<path d="M435.2,40h-23.4V28h60V40h-23.6v66h-13V40z"/>
</g>
</svg>
