<?xml version="1.0" encoding="utf-8"?>
<!-- Generator: Adobe Illustrator 21.1.0, SVG Export Plug-In . SVG Version: 6.00 Build 0)  -->
<svg version="1.1" xmlns="http://www.w3.org/2000/svg" xmlns:xlink="http://www.w3.org/1999/xlink" x="0px" y="0px"
	 viewBox="0 0 500 500" style="enable-background:new 0 0 500 500;" xml:space="preserve">
<g id="Layer_1">
	<g>
		<path d="M71.1,100l1.4-13.9H72l-4,11.2l-14,26.1h-4.1L35,97.2l-4.1-11.1h-0.5l1.9,13.8v36.4H20v-70h11.8l17.6,32l3.1,8h0.4
			l2.8-8.2l16.6-31.8H84v70H71.1V100z"/>
	</g>
</g>
<g id="Layer_2">
	<g>
		<path d="M89.9,111.3c0-8.5,1.9-15,5.8-19.5c3.9-4.6,9.3-6.9,16.4-6.9c3.8,0,7,0.6,9.8,1.9c2.8,1.3,5,3,6.9,5.4
			c1.8,2.3,3.2,5.1,4.1,8.4c0.9,3.3,1.4,6.9,1.4,10.8c0,8.5-1.9,15-5.8,19.5c-3.9,4.6-9.3,6.9-16.3,6.9c-3.8,0-7-0.6-9.8-1.9
			c-2.8-1.3-5.1-3-6.9-5.4c-1.9-2.3-3.2-5.1-4.1-8.4C90.4,118.8,89.9,115.2,89.9,111.3z M102.5,111.3c0,2.2,0.2,4.2,0.6,6.1
			c0.4,1.9,0.9,3.5,1.7,4.9c0.8,1.4,1.7,2.5,3,3.2c1.2,0.8,2.7,1.1,4.4,1.1c3.2,0,5.6-1.2,7.1-3.7c1.6-2.5,2.4-6.4,2.4-11.7
			c0-4.6-0.7-8.3-2.2-11.1c-1.4-2.8-3.9-4.2-7.3-4.2c-3,0-5.4,1.2-7.1,3.6C103.4,101.9,102.5,105.8,102.5,111.3z"/>
	</g>
</g>
<g id="Layer_3">
	<g>
		<path d="M152.8,119.5c0,2.3,0.3,4,0.8,5.1c0.6,1.1,1.5,1.6,2.7,1.6c0.8,0,1.5-0.1,2.2-0.2c0.7-0.1,1.6-0.4,2.7-0.9l1.3,10.2
			c-1,0.5-2.5,1.1-4.6,1.6c-2.1,0.5-4.2,0.8-6.4,0.8c-3.6,0-6.3-0.9-8.2-2.6c-1.9-1.8-2.8-4.7-2.8-8.8v-60h12.2V119.5z"/>
	</g>
</g>
<g id="Layer_4">
	<g>
		<path d="M206,132c-1.9,1.6-4.4,2.9-7.7,4c-3.2,1.1-6.7,1.6-10.3,1.6c-7.6,0-13.1-2.4-16.6-7c-3.5-4.7-5.3-11.1-5.3-19.4
			c0-8.8,2-15.4,5.9-19.8c4-4.4,9.5-6.6,16.6-6.6c2.4,0,4.7,0.3,7,1c2.3,0.7,4.3,1.8,6,3.3c1.8,1.5,3.2,3.6,4.2,6.2
			c1.1,2.6,1.6,5.8,1.6,9.7c0,1.4-0.1,2.9-0.2,4.5c-0.2,1.6-0.4,3.3-0.7,5h-28.1c0.2,4.2,1.2,7.4,3,9.5c1.8,2.1,4.8,3.2,9,3.2
			c2.6,0,4.9-0.4,6.9-1.2c2-0.8,3.6-1.7,4.6-2.5L206,132z M188.5,95.3c-3.2,0-5.5,1-7.1,3c-1.5,2-2.4,4.8-2.8,8.2h17.4
			c0.2-3.6-0.3-6.4-1.5-8.3C193.3,96.3,191.3,95.3,188.5,95.3z"/>
	</g>
</g>
<g id="Layer_5">
	<g>
		<path d="M241.4,98.5c-1.9-0.7-3.7-1.1-5.3-1.1c-2.2,0-4,0.6-5.5,1.9c-1.5,1.2-2.5,2.8-3,4.8v32.3h-12.2v-50h9.5l1.4,6.6h0.4
			c1.1-2.5,2.5-4.4,4.3-5.7c1.8-1.3,4-2,6.4-2c1.6,0,3.5,0.4,5.5,1.1L241.4,98.5z"/>
	</g>
</g>
<g id="Layer_6">
	<g>
		<path d="M276,101.4h22.1v30.8c-1,0.8-2.2,1.5-3.6,2.2c-1.4,0.7-2.9,1.2-4.5,1.7c-1.6,0.5-3.3,0.8-5,1.1c-1.7,0.2-3.4,0.4-5,0.4
			c-4.2,0-8.1-0.7-11.6-2.2c-3.5-1.4-6.6-3.6-9.1-6.6c-2.6-3-4.6-6.7-6-11.3c-1.4-4.6-2.2-9.9-2.2-16.1c0-6.5,0.9-12,2.6-16.6
			c1.8-4.6,4-8.4,6.9-11.2s6-5,9.5-6.4c3.5-1.3,7-2,10.5-2c3.8,0,6.9,0.2,9.3,0.7c2.4,0.4,4.5,1,6.2,1.8l-2,7.4
			c-3-1.6-7.3-2.4-12.9-2.4c-2.6,0-5.3,0.5-7.9,1.4c-2.6,1-4.9,2.6-7,4.9c-2.1,2.3-3.8,5.2-5.1,8.9c-1.3,3.7-2,8.2-2,13.6
			c0,4.9,0.5,9.2,1.6,12.8c1.1,3.6,2.5,6.6,4.5,9c1.9,2.4,4.2,4.1,6.9,5.3c2.7,1.2,5.6,1.8,8.8,1.8c4,0,7.4-0.8,10.2-2.5v-19.5
			l-15.3-2V101.4z"/>
	</g>
</g>
<g id="Layer_7">
	<g>
		<path d="M329.8,94c-1.9-0.7-3.7-1-5.4-1c-2.7,0-4.8,0.8-6.4,2.3c-1.6,1.6-2.5,3.6-2.9,6v35h-7.5v-50h5.3l1.4,6.1h0.4
			c1.2-2.3,2.6-4,4.3-5.2c1.7-1.2,3.8-1.9,6.3-1.9c1.8,0,3.9,0.3,6.1,1L329.8,94z"/>
	</g>
</g>
<g id="Layer_8">
	<g>
		<path d="M428,86.3h5.2l1.4,6h0.4c1.4-2.3,3.3-4.1,5.6-5.4c2.3-1.2,4.9-1.9,7.9-1.9c6.3,0,10.9,2,14,5.9c3.1,3.9,4.6,10.4,4.6,19.3
			c0,4.2-0.5,8-1.6,11.4c-1,3.4-2.5,6.2-4.4,8.5c-1.9,2.3-4.2,4.1-6.8,5.4c-2.7,1.3-5.6,1.9-8.9,1.9c-2.3,0-4.2-0.2-5.5-0.5
			c-1.3-0.3-2.8-0.8-4.4-1.5v20.8H428V86.3z M447,92.1c-3.2,0-5.7,0.9-7.6,2.7c-1.8,1.8-3.2,4.4-3.9,8v24.8c1.1,0.9,2.4,1.7,3.9,2.2
			s3.4,0.8,5.7,0.8c4.3,0,7.8-1.7,10.3-5.2c2.5-3.4,3.8-8.5,3.8-15.1c0-2.7-0.2-5.2-0.7-7.4c-0.4-2.2-1.1-4.1-2.1-5.7
			c-1-1.6-2.2-2.8-3.8-3.6C451.1,92.5,449.2,92.1,447,92.1z"/>
	</g>
</g>
<g id="Layer_9">
	<g>
		<path d="M388.6,87.3v28.5c0,2.6,0.1,4.9,0.4,6.9c0.3,2,0.8,3.6,1.5,4.9c0.7,1.3,1.6,2.3,2.8,3c1.2,0.7,2.7,1,4.5,1
			c1.7,0,3.2-0.3,4.5-0.9c1.3-0.6,2.5-1.4,3.5-2.4c1-1,1.9-2.1,2.7-3.5c0.8-1.3,1.4-2.7,1.9-4.1V87.3h7.5v35.8
			c0,2.4,0.1,4.9,0.2,7.5c0.2,2.6,0.4,4.8,0.8,6.8H414l-1.9-7.9h-0.5c-1.4,2.6-3.4,4.8-5.8,6.5s-5.5,2.6-9.3,2.6
			c-2.5,0-4.7-0.3-6.6-1c-1.9-0.6-3.5-1.8-4.8-3.4c-1.3-1.6-2.3-3.8-2.9-6.4c-0.7-2.7-1-6.1-1-10.2V87.3H388.6z"/>
	</g>
</g>
<g id="Layer_10">
	<g>
		<path d="M335,111.3c0-8.5,1.8-15,5.3-19.5c3.5-4.5,8.6-6.8,15.3-6.8c3.5,0,6.6,0.6,9.2,1.9c2.6,1.2,4.8,3,6.4,5.3
			c1.7,2.3,2.9,5.1,3.8,8.3c0.8,3.2,1.2,6.8,1.2,10.8c0,8.5-1.8,15-5.3,19.5c-3.5,4.5-8.6,6.8-15.3,6.8c-3.5,0-6.6-0.6-9.2-1.9
			c-2.6-1.2-4.7-3-6.4-5.3c-1.7-2.3-2.9-5.1-3.8-8.3C335.4,118.8,335,115.2,335,111.3z M342.8,111.3c0,2.5,0.2,5,0.7,7.3
			c0.5,2.3,1.2,4.4,2.2,6.1c1,1.7,2.3,3.1,4,4.2c1.6,1.1,3.6,1.6,5.9,1.6c8.5,0.1,12.8-6.3,12.8-19.2c0-2.6-0.2-5.1-0.7-7.4
			c-0.5-2.3-1.2-4.4-2.2-6.1c-1-1.7-2.3-3.1-3.9-4.1c-1.6-1-3.6-1.6-5.9-1.6C347.1,92,342.8,98.4,342.8,111.3z"/>
	</g>
</g>
</svg>
