<?xml version="1.0" encoding="utf-8"?>
<!-- Generator: Adobe Illustrator 21.1.0, SVG Export Plug-In . SVG Version: 6.00 Build 0)  -->
<svg version="1.1" id="Layer_1" xmlns="http://www.w3.org/2000/svg" xmlns:xlink="http://www.w3.org/1999/xlink" x="0px" y="0px"
	 viewBox="0 0 1280 1024" style="enable-background:new 0 0 1280 1024;" xml:space="preserve">
<style type="text/css">
	.st0{fill:#FFFFFF;}
</style>
<g>
	<path class="st0" d="M0.5,0.1c341.8,0,683.6,0,1025.4,0c0,342.1,0,684.3,0,1026.4c-341.8,0-683.6,0-1025.4,0
		C0.5,684.4,0.5,342.3,0.5,0.1z M24.2,513.2c-0.2,269.4,218.7,488.8,488,489.1c270.6,0.3,490-218.5,490-488.9
		c0-269.9-218.1-488.5-487.7-489C243.6,23.9,24.4,242.7,24.2,513.2z"/>
	<path d="M24.2,513.2C24.4,242.7,243.6,23.9,514.5,24.5c269.6,0.5,487.6,219.1,487.7,489c0,270.4-219.4,489.1-490,488.9
		C243,1002.1,24.1,782.6,24.2,513.2z M430.5,181.3c-0.6,0.4-1.6,1-2.4,1.7c-25.9,25.4-52,50.7-77.7,76.3
		c-21.9,21.9-42.9,44.7-62.3,69c-1.5,1.9-2.1,3.7-2.2,6.1c-1,27.1,2.2,53.7,8.8,79.9c12,47.5,33.2,91.1,58.5,132.7
		c0.5,0.7,1.5,1.4,2.4,1.5c17.4,3,34.8,5.8,52.3,8.7c27,4.5,54,9.1,81,13.7c24.1,4.1,48.1,8.3,72.1,12.5c1.9,0.3,3.2-0.1,4.6-1.4
		c10.4-9.7,21.1-19.2,31.4-29c43.2-41,83.1-85.1,119-132.6c0.9-1.3,1.3-2.2,0.7-3.9c-22.1-59.8-44.1-119.7-66.1-179.6
		c-0.7-1.8-1.6-2.9-3.4-3.8c-38.1-18.7-78.5-30.4-120.1-38.2c-20.5-3.8-41.1-6.7-61.7-9.6C454.2,183.8,442.7,182.7,430.5,181.3z
		 M739.5,821c11.7-0.7,23.4-1.3,35-2.2c3.9-0.3,8.1,0,11.6-2.5c7.3-5.3,14.9-10.3,21.8-16.1c18.2-15.4,33.9-33.3,48.4-52.2
		c20.7-26.9,40.8-54.1,61.1-81.3c0.7-0.9,1-2.4,0.9-3.5c-1.2-18.4-2.3-36.8-3.6-55.2c-1.9-25.8-4.9-51.5-9.8-76.9
		c-4.4-22.8-10.3-45-19.4-66.4c-0.8-1.8-1.8-2.5-3.7-2.9c-21.5-4.6-43.2-8.6-64.5-14c-31-7.7-61.8-16.3-92.7-24.6
		c-2.6-0.7-4-0.3-5.7,1.9c-29.2,38.7-60.9,75.1-95.3,109.2c-17.6,17.4-35.9,34.1-53.9,51.1c-0.9,0.9-1.8,1.5-1.2,3.2
		c11.2,35.9,17.4,72.8,21.6,110.1c3.2,28.8,5.9,57.6,8.7,86.4c0.2,1.8,0.8,2.7,2.4,3.4C644.8,809.7,690.8,820.7,739.5,821z
		 M280.9,333.8c-0.9-0.1-1.7-0.3-2.5-0.4c-21.5-1-43-2.2-64.5-3.1c-25-1-49.9-3.3-74.6-7.6c-1.8-0.3-3,0-4.3,1.3
		c-12.8,12.2-24.3,25.7-34.5,40.2c-25.8,36.7-43.6,77.1-55.3,120.3c-2.1,7.8-5.2,15.5-2.6,23.8c0.3,0.9,0.3,1.8,0.5,2.8
		c4.5,26.7,9.8,53.2,17.5,79.2c8.4,28.5,19.4,55.8,35.8,80.7c3.1,4.7,6,9.8,10.1,13.3c6,5.2,12.8,9.7,19.8,13.6
		c21.4,12,44.9,16.6,69,17.9c19.1,1,38.3,0.9,57.4,1.4c2.3,0.1,3.4-0.6,4.4-2.7c4.6-10.7,9.4-21.4,14.3-32
		c21.3-46.2,45.8-90.6,76.6-131.4c1.1-1.4,0.8-2.3,0-3.6c-14.9-24.7-28.4-50.2-39.4-76.9c-17.8-43.3-28.9-88-27.4-135.2
		C281.1,334.9,281,334.4,280.9,333.8z M778.1,823.5c-5.7,0.4-11,0.9-16.2,1.2c-26.1,1.8-52.1,0.5-77.8-4
		c-29.9-5.2-58.5-14.9-85.7-28.3c-1.3-0.7-2.2-0.6-3.4,0.3c-13.2,10.4-27.5,19.1-42.5,26.6c-23.9,12-49.1,21-74.2,29.8
		c-22,7.7-43.8,15.7-65.8,23.5c-2.3,0.8-3.4,2.1-3.9,4.4c-2.4,9.2-3.6,18.6-4,28.1c-0.8,20.1,1.1,40.1,4,60c0.3,1.8,1.2,3.9,2.6,5
		c4,3.3,8,6.8,12.5,9.2c19.9,10.6,41.3,16,63.7,17.3c42.3,2.4,84.3-0.8,125.8-9.6c56.5-11.9,109.2-33.3,158-64.1
		c0.6-0.4,1.1-0.8,2.2-1.6c-6.7-0.4-12.8-0.7-19.2-1.1C772.8,890.5,776.7,857.5,778.1,823.5z M358.4,80.4c2.2,2.1,4.3,4,6.3,5.9
		c14.1,13.7,25.9,29.3,36.8,45.6c9.4,14.1,18.4,28.4,27.7,42.5c0.6,0.9,1.8,1.9,2.8,2.1c11.3,1.5,22.7,2.7,34.1,4.1
		c27.1,3.2,53.9,7.5,80.5,13.4c35.9,8,70.8,19,103.9,35.4c1.4,0.7,2.3,0.5,3.4-0.4c8.5-6.2,16.9-12.4,25.5-18.5
		c21.8-15.3,44.2-29.8,68.2-41.5c7.8-3.8,15.8-7.2,23.9-10.8c-0.5-0.8-1-1.8-1.6-2.7c-8.3-13.5-17.9-26-28.6-37.8
		C721.6,96,699.5,77,676.4,59c-2-1.6-4.4-3-6.9-3.8C623,39.3,575.1,30.8,526,29.5c-4.2-0.1-8.5-0.5-12.5,0.2
		c-12.7,2.1-25.4,4.3-38,7c-26.9,5.6-53.4,12.9-78.8,23.6C383.3,65.7,370.6,72.1,358.4,80.4z M403.4,965.7c0-0.6,0-1,0-1.3
		c-1.3-13.4-2.8-26.8-3.7-40.3c-1-15.9-0.1-31.8,3.9-47.3c0.5-2,0.2-3-1.5-4.1c-16.8-11-32.6-23.4-47.5-36.9
		c-22-20-41.1-42.7-59.3-66.1c-11.7-15.1-23.4-30.3-35.1-45.4c-1.2-1.5-2.4-2.4-4.5-2.3c-3.4,0.2-6.8,0-10.2,0
		c-24.9-0.1-49.9,0.1-74.6-4.1c-20-3.4-38.9-9.7-55.9-20.9c-4.2-2.8-8.2-5.8-12.5-8.9c-5.3,30.3,0.2,59.1,11.5,87.3
		c-2.3,0.7-4.3,1.4-6.4,2c0.5,0.8,0.8,1.4,1.2,2c8.2,11.4,16,23,24.6,34c37.7,47.7,82.8,87,135.2,117.8c16,9.4,32.2,18.4,49.5,24.9
		c18,6.8,36.3,12.5,55.8,13.3C383.9,969.8,393.7,968.7,403.4,965.7z M965.7,685.4c0.3-0.7,0.5-1.3,0.7-1.8
		c17.5-46.7,27.6-95,30.2-144.8c1.7-32,0.2-63.9-4.4-95.6c-4.5-30.8-11.9-60.9-22.2-90.3c-0.6-1.6-1.5-3.3-2.6-4.6
		c-6.8-8.3-15.2-14.7-24.8-19.5c-6.2-3.1-12.7-5.2-19.6-6.9c-0.2,0.9-0.5,1.7-0.6,2.4c-5.5,26-10.7,52-16.5,77.9
		c-4.2,18.9-9.2,37.6-16.8,55.5c-0.4,0.9-0.2,2.3,0.2,3.3c3.5,9.6,7.5,19.1,10.5,28.8c11.4,36.7,16.2,74.7,19.4,112.8
		c1.7,19.7,2.8,39.4,4.1,59c0.1,1.5,0.9,1.9,2,2.4c7.9,3.7,15.9,7.2,23.6,11.2C954.6,678.3,960,681.9,965.7,685.4z M689.6,63
		c0.5,0.4,0.9,0.9,1.4,1.3c11.3,9.9,22.9,19.5,33.9,29.8c19.8,18.4,37.3,38.8,51.1,62.1c1.4,2.3,3.2,4.4,5.1,6.3
		c23.7,22.8,47.8,45.2,71,68.5c25.7,25.7,49,53.5,69.1,83.9c0.6,0.9,1.9,1.7,3,2c10.1,2.1,19.3,6.2,28,11.6c4,2.5,7.7,5.5,11.9,8.6
		c-24.9-63.1-61.1-118.4-108.8-166C807.6,123.4,752.5,87.3,689.6,63z M176.3,165.5C85.5,255.9,36.4,364.9,29.3,493.2
		c2.5-0.2,4.3-0.3,6.2-0.5c1.8-0.1,2.7-0.9,3.2-2.9c7.6-30.5,18.6-59.7,33-87.7c15.6-30.1,34.7-57.6,59.2-81.2
		c0.8-0.8,1.4-2.2,1.4-3.3c0.7-18.1,3.2-35.9,7.4-53.4c8-33.2,21.4-64.2,38.1-93.8C179,168.4,179.1,167,176.3,165.5z M182.4,164.2
		c6.5-4.1,12.8-7.9,19-11.8c46.3-28.6,94.6-53.1,146.1-71c1.3-0.4,2.4-1.2,3.6-1.9c9.4-5.6,18.6-11.9,28.4-16.8
		c25.5-12.9,52.7-21,80.4-27.7c5.6-1.3,11.2-2.6,16.8-3.8c-0.1-0.2-0.2-0.4-0.2-0.7C362.6,40.3,264,84.1,180.2,161.9
		C181.1,162.9,181.7,163.5,182.4,164.2z"/>
	<path class="st0" d="M430.5,181.3c12.2,1.4,23.7,2.5,35.2,4.1c20.6,3,41.2,5.8,61.7,9.6c41.6,7.8,81.9,19.5,120.1,38.2
		c1.8,0.9,2.7,2,3.4,3.8c22,59.9,44,119.8,66.1,179.6c0.6,1.7,0.2,2.6-0.7,3.9c-35.9,47.5-75.8,91.6-119,132.6
		c-10.3,9.8-21,19.3-31.4,29c-1.4,1.3-2.7,1.7-4.6,1.4c-24-4.2-48.1-8.4-72.1-12.5c-27-4.6-54-9.2-81-13.7
		c-17.4-2.9-34.8-5.8-52.3-8.7c-0.9-0.1-2-0.8-2.4-1.5c-25.3-41.7-46.5-85.2-58.5-132.7c-6.6-26.2-9.9-52.8-8.8-79.9
		c0.1-2.3,0.7-4.2,2.2-6.1c19.3-24.3,40.4-47.1,62.3-69c25.7-25.7,51.8-50.9,77.7-76.3C428.9,182.3,429.9,181.7,430.5,181.3z"/>
	<path class="st0" d="M739.5,821c-48.7-0.3-94.7-11.3-138.4-32.6c-1.5-0.8-2.2-1.6-2.4-3.4c-2.8-28.8-5.5-57.6-8.7-86.4
		c-4.2-37.3-10.4-74.2-21.6-110.1c-0.5-1.7,0.3-2.3,1.2-3.2c18-17,36.3-33.7,53.9-51.1c34.4-34.1,66.2-70.5,95.3-109.2
		c1.7-2.2,3.1-2.6,5.7-1.9c30.9,8.3,61.7,16.9,92.7,24.6c21.3,5.3,43,9.4,64.5,14c1.9,0.4,2.9,1.1,3.7,2.9
		c9.1,21.4,15.1,43.7,19.4,66.4c4.9,25.4,7.9,51.1,9.8,76.9c1.4,18.4,2.5,36.8,3.6,55.2c0.1,1.2-0.3,2.6-0.9,3.5
		c-20.3,27.1-40.5,54.4-61.1,81.3c-14.5,18.8-30.1,36.8-48.4,52.2c-6.9,5.8-14.5,10.8-21.8,16.1c-3.5,2.5-7.7,2.2-11.6,2.5
		C762.9,819.7,751.2,820.3,739.5,821z"/>
	<path class="st0" d="M280.9,333.8c0.1,0.6,0.1,1,0.1,1.4c-1.6,47.2,9.6,91.9,27.4,135.2c11,26.7,24.5,52.2,39.4,76.9
		c0.8,1.3,1.1,2.2,0,3.6c-30.8,40.7-55.3,85.1-76.6,131.4c-4.9,10.6-9.7,21.3-14.3,32c-0.9,2.2-2,2.8-4.4,2.7
		c-19.1-0.5-38.3-0.4-57.4-1.4c-24.1-1.3-47.6-5.9-69-17.9c-7-3.9-13.8-8.4-19.8-13.6c-4.1-3.6-7-8.7-10.1-13.3
		c-16.4-24.9-27.4-52.2-35.8-80.7c-7.7-26-12.9-52.5-17.5-79.2c-0.2-0.9-0.2-1.9-0.5-2.8c-2.6-8.3,0.5-16,2.6-23.8
		c11.7-43.2,29.5-83.6,55.3-120.3c10.2-14.5,21.7-27.9,34.5-40.2c1.3-1.3,2.6-1.6,4.3-1.3c24.7,4.3,49.6,6.6,74.6,7.6
		c21.5,0.9,43,2,64.5,3.1C279.3,333.5,280.1,333.7,280.9,333.8z"/>
	<path class="st0" d="M778.1,823.5c-1.4,34-5.4,67.1-24,96.8c6.4,0.4,12.5,0.7,19.2,1.1c-1,0.8-1.6,1.2-2.2,1.6
		c-48.9,30.8-101.5,52.2-158,64.1c-41.5,8.8-83.5,12-125.8,9.6c-22.4-1.3-43.8-6.7-63.7-17.3c-4.5-2.4-8.5-5.9-12.5-9.2
		c-1.3-1.1-2.3-3.2-2.6-5c-2.9-19.9-4.8-39.9-4-60c0.4-9.5,1.6-18.9,4-28.1c0.6-2.3,1.7-3.6,3.9-4.4c21.9-7.8,43.8-15.8,65.8-23.5
		c25.2-8.9,50.3-17.8,74.2-29.8c15-7.5,29.3-16.2,42.5-26.6c1.2-1,2.1-1,3.4-0.3c27.2,13.4,55.8,23.1,85.7,28.3
		c25.8,4.5,51.7,5.8,77.8,4C767.2,824.3,772.4,823.9,778.1,823.5z"/>
	<path class="st0" d="M358.4,80.4c12.2-8.3,25-14.7,38.2-20.3c25.4-10.6,51.9-18,78.8-23.6c12.6-2.6,25.3-4.9,38-7
		c4.1-0.7,8.4-0.3,12.5-0.2c49.2,1.3,97.1,9.8,143.6,25.7c2.4,0.8,4.8,2.2,6.9,3.8c23,18,45.2,37,64.9,58.8
		c10.6,11.8,20.3,24.2,28.6,37.8c0.6,0.9,1.1,1.9,1.6,2.7c-8,3.6-16.1,7-23.9,10.8c-24,11.7-46.4,26.2-68.2,41.5
		c-8.6,6-17.1,12.3-25.5,18.5c-1.2,0.9-2.1,1-3.4,0.4c-33.1-16.4-68-27.4-103.9-35.4c-26.6-5.9-53.5-10.2-80.5-13.4
		c-11.4-1.4-22.7-2.6-34.1-4.1c-1-0.1-2.2-1.1-2.8-2.1c-9.3-14.1-18.3-28.4-27.7-42.5c-10.9-16.3-22.7-31.9-36.8-45.6
		C362.7,84.4,360.6,82.5,358.4,80.4z"/>
	<path class="st0" d="M403.4,965.7c-9.7,2.9-19.5,4.1-29.5,3.6c-19.5-0.8-37.8-6.6-55.8-13.3c-17.4-6.5-33.6-15.6-49.5-24.9
		c-52.4-30.8-97.6-70-135.2-117.8c-8.7-11-16.5-22.6-24.6-34c-0.4-0.5-0.7-1.1-1.2-2c2.1-0.7,4.1-1.3,6.4-2
		c-11.3-28.1-16.8-56.9-11.5-87.3c4.3,3.1,8.3,6.1,12.5,8.9c17,11.3,35.9,17.6,55.9,20.9c24.7,4.2,49.7,4,74.6,4.1
		c3.4,0,6.8,0.2,10.2,0c2.1-0.1,3.3,0.7,4.5,2.3c11.7,15.2,23.4,30.3,35.1,45.4c18.2,23.5,37.3,46.1,59.3,66.1
		c14.9,13.5,30.7,25.9,47.5,36.9c1.7,1.1,2.1,2.1,1.5,4.1c-4,15.5-4.9,31.4-3.9,47.3c0.9,13.5,2.4,26.9,3.7,40.3
		C403.5,964.8,403.4,965.1,403.4,965.7z"/>
	<path class="st0" d="M965.7,685.4c-5.7-3.5-11.1-7.1-16.9-10.1c-7.7-4-15.7-7.5-23.6-11.2c-1.1-0.5-1.9-0.9-2-2.4
		c-1.3-19.7-2.4-39.4-4.1-59c-3.2-38.1-8-76.1-19.4-112.8c-3-9.8-7-19.2-10.5-28.8c-0.4-1-0.6-2.4-0.2-3.3
		c7.6-17.9,12.6-36.6,16.8-55.5c5.7-25.9,11-51.9,16.5-77.9c0.2-0.7,0.4-1.4,0.6-2.4c6.9,1.6,13.4,3.8,19.6,6.9
		c9.6,4.8,17.9,11.2,24.8,19.5c1.1,1.4,2.1,3,2.6,4.6c10.3,29.4,17.7,59.5,22.2,90.3c4.6,31.7,6.1,63.6,4.4,95.6
		c-2.6,49.8-12.6,98.1-30.2,144.8C966.2,684.1,966,684.6,965.7,685.4z"/>
	<path class="st0" d="M689.6,63c62.8,24.3,118,60.4,165.6,107.9c47.7,47.7,83.9,103,108.8,166c-4.2-3-7.9-6.1-11.9-8.6
		c-8.6-5.4-17.9-9.5-28-11.6c-1.1-0.2-2.4-1-3-2c-20.1-30.4-43.5-58.2-69.1-83.9c-23.2-23.3-47.3-45.7-71-68.5
		c-1.9-1.9-3.8-4-5.1-6.3c-13.9-23.3-31.4-43.7-51.1-62.1c-11-10.2-22.6-19.9-33.9-29.8C690.5,63.9,690.1,63.4,689.6,63z"/>
	<path class="st0" d="M176.3,165.5c2.9,1.5,2.8,2.9,1.6,5c-16.6,29.7-30,60.7-38.1,93.8c-4.2,17.6-6.7,35.4-7.4,53.4
		c0,1.1-0.6,2.5-1.4,3.3c-24.5,23.6-43.7,51.1-59.2,81.2c-14.4,27.9-25.4,57.2-33,87.7c-0.5,2-1.4,2.7-3.2,2.9
		c-1.8,0.1-3.7,0.3-6.2,0.5C36.4,364.9,85.5,255.9,176.3,165.5z"/>
	<path class="st0" d="M182.4,164.2c-0.7-0.7-1.2-1.4-2.2-2.4C264,84.1,362.6,40.3,476.3,30.6c0.1,0.2,0.2,0.4,0.2,0.7
		c-5.6,1.3-11.2,2.5-16.8,3.8c-27.7,6.6-54.9,14.7-80.4,27.7c-9.8,5-18.9,11.2-28.4,16.8c-1.2,0.7-2.3,1.5-3.6,1.9
		c-51.5,17.9-99.8,42.4-146.1,71C195.1,156.3,188.9,160.2,182.4,164.2z"/>
</g>
<ellipse cx="513.2" cy="516.4" rx="489" ry="485.9"/>
</svg>
