<?xml version="1.0" encoding="utf-8"?>
<!-- Generator: Adobe Illustrator 21.1.0, SVG Export Plug-In . SVG Version: 6.00 Build 0)  -->
<svg version="1.1" id="Layer_1" xmlns="http://www.w3.org/2000/svg" xmlns:xlink="http://www.w3.org/1999/xlink" x="0px" y="0px"
	 viewBox="0 0 1280 1024" style="enable-background:new 0 0 1280 1024;" xml:space="preserve">
<path d="M280.5,235.9c0,63.9,0,120,0,176.1c0,115.2-0.2,230.3,0.4,345.5c0.1,25.1,1.5,50.5,5.5,75.2
	c11.5,72.5,41.4,100.9,123.9,119.4c15.6,3.5,30.7,3.9,29.4,27.1c-1,16.4-5.3,23.7-22.8,23.7c-112.8-0.4-225.5-0.3-338.3-0.1
	c-14.1,0-22.9-3.5-22.8-19.9c0.1-14.1,0.2-26.2,18.7-28.6c129.4-17.2,141.6-88.7,142.3-186.4c1.4-194.3,0.7-388.7,1.5-583
	c0.1-17.3-6.1-29-17.9-40.7C152.1,95.9,94.4,65.5,28,53C5,48.6-1.7,38.8,0.5,17.2C3-8.1,22,2.7,33.3,2.6c87.6-1,175.2,0.1,262.7-1
	c21.3-0.3,34.9,6.3,48.2,23.2c190.2,240.4,405.1,458.1,623.3,672.7c3.3,3.2,7.4,5.7,10.9,8.4c11.5-7.3,7-18,7-26.6
	c0.2-142.8,0.2-285.5-0.2-428.3c0-19.2-1.3-38.4-3.2-57.5c-8.7-86.7-38-119.7-123.4-140.3c-10.2-2.5-24.2-0.2-28.8-11.1
	c-3.9-9.2-3.6-21.4-1.6-31.5c2.7-13.4,15.5-8.2,24-8.2C964,1.9,1075.6,2.1,1187.2,2c13.4,0,26.6-1.8,26.3,18.9
	c-0.2,16.2-2.5,27.1-21.6,30.4c-114,19.6-132.8,79.4-134.7,167.9c-5.3,254.3-10.4,508.5-1.5,762.8c0.4,11.6,9.8,28.8-9.7,33.2
	c-16.2,3.7-32.4,2.9-45-13.6c-23.3-30.5-47-60.9-73.4-88.7C718.2,691.6,508.1,471,298.1,250.2C294.9,246.9,290.9,244.3,280.5,235.9z
	"/>
</svg>
