<?xml version="1.0" encoding="utf-8"?>
<!-- Generator: Adobe Illustrator 21.1.0, SVG Export Plug-In . SVG Version: 6.00 Build 0)  -->
<svg version="1.1" id="Layer_1" xmlns="http://www.w3.org/2000/svg" xmlns:xlink="http://www.w3.org/1999/xlink" x="0px" y="0px"
	 viewBox="0 0 1280 1024" style="enable-background:new 0 0 1280 1024;" xml:space="preserve">
<path d="M56,4.3c21.6,0,42.8-0.1,63.9,0.1c9,0.1,20.5-2.3,26.1,2.2c5.3,4.3,4.4,16.2,6.1,24.8c4.3,22,8.4,44,13.1,68.2
	c5.3-8.5,9.5-15.2,13.6-22c13.6-22.3,27-44.6,40.8-66.7c1.8-2.9,5.5-6.6,8.3-6.6C254.6,3.7,281.3,4,308.1,4c0,1.5,0.4,2.8-0.1,3.3
	c-17.6,18.9-21.9,43.2-27,67.1c-8.3,39.2-16.2,78.4-24.3,117.7c-0.7,3.5-0.9,7-1.4,10.5c0.8,0.5,1.6,1,2.4,1.6
	c4.3-5.6,9.5-10.7,12.7-16.8c12.3-23,24-46.3,35.8-69.5c8-15.7,15.7-31.5,23.7-47.1c4-7.8,10.1-15.5-2.3-23.3
	c0.8-0.5,1.6-0.9,2.4-1.4c53.4,0,106.8,0,162.2,0c-6.5,4.1-12.3,6.9-17,10.9c-3.4,2.9-7.9,7.4-7.8,11.1c0.8,29.1,2.6,58.2,4,87.3
	c0.9,0.1,1.8,0.2,2.6,0.3c13.4-28.1,26.8-56.2,40.1-84.4c3.2-6.8,2.7-12.4-4.4-16.7c-3.5-2.1-6.4-5.3-11-9.1c61.8,0,121.8,0,182.8,0
	c-3.5,17.5-6.8,33.8-10.1,50.2c-0.6,0.7-1.1,1.5-1.7,2.2c-11.4-24.1-31.9-19.4-51.7-19.2c-2.4,11.5-4.7,22.6-7.1,34
	c20.7,3.1,38.8,0.1,52.7-17.1c0.7,0.5,1.4,1,2.1,1.5c-4.2,20.7-8.4,41.3-13.1,64.8c5.7-6.1,9.6-10.2,13.6-14.4
	c0.6,0.3,1.2,0.6,1.8,1c-2.5,7.8-5.2,15.6-7.5,23.5c-3.5,11.9-6.5,23.9-10.4,35.6c-1,2.9-4.7,7-7.1,7.1
	c-36.1,0.5-72.2,0.3-108.2,0.3c-0.2-1.2-0.6-2.1-0.3-2.4c18.1-20.9,19.5-47.7,25.2-72.9c4.6-20,8.6-40.1,12-60.4
	c1.2-7.3,0.2-15,0.2-22.5c-1.1-0.4-2.2-0.7-3.3-1.1c-4.8,6.8-10.3,13.1-14.2,20.4c-22.7,42.9-45.2,85.9-67.2,129.1
	c-3.8,7.5-7.8,10.7-16.3,9.9c-10.3-0.9-20.8-0.6-31.2,0c-6.8,0.4-9-1.9-9.6-8.6c-3.7-42.2-7.8-84.4-11.9-126.5
	c-1.1-10.7-2.7-21.5-13.9-29.7c-1.8,4.3-5.1,8.2-4.9,12c2.5,41,4.9,82,8.8,122.9c1,10,7.2,19.4,11.2,29.4c-26.7,0-55,0-83.2,0
	c-0.3-0.5-0.7-1-1-1.5c5.3-3.2,11-6,15.8-9.9c3.3-2.6,7.4-6.6,7.7-10.3c1-11.5,0.4-23.2,0.4-35.4c-10.9,0-19.7-0.4-28.5,0.2
	c-2.5,0.2-5.9,2.5-7.1,4.8c-4.4,8.3-8,17.1-12.1,25.6c-3.8,7.8-2.2,13.6,5.4,18.1c3.2,1.9,5.8,4.6,7.8,9c-23.2,0-46.4,0-71.9,0
	c2.6,10.2,4.8,19.1,7.2,28.7c-29.4,0-58.2,0-88.5,0c1.7-2.8,2.8-5.5,4.6-7.3c10.9-11.2,15.9-25.2,19.2-40
	c7.8-35.2,15.7-70.5,22-106.4c-27.4,44.2-54.8,88.4-82.2,132.7c-0.8-0.2-1.6-0.3-2.4-0.5c-8.7-44.5-17.5-89.1-26.8-136.4
	C98.7,120.8,92,153,85.6,185.1c-3.9,19.5-8.2,39.1,3.4,58.9c-29,0-55.5,0-82.1,0c-0.2-0.8-0.6-1.7-0.4-2
	c18.5-21.1,23.3-47.5,28.7-73.7c8.7-42.4,17.5-84.8,25-127.5c1.7-9.6-2.2-20.3-3.5-30.4C56.5,8.6,56.3,6.7,56,4.3z M251.8,188.2
	c3.3-16.8,6.6-33.5,9.9-50.3c0.8-2.8,1.7-5.6,2.4-8.4c7-30.5,13.5-61,21.2-91.3c2.1-8.2,7.6-15.5,11.6-23.2c1.4-1.9,2.8-3.7,4.8-6.3
	c-24.4,0-47.6,0-70.7,0.1c-1.5,0-3.1,1.5-4.6,2.2c-3.5,5.4-7.2,10.7-10.6,16.2c-16,25.8-31.9,51.6-47.9,77.5c-1.5,1.4-3,2.8-5.1,4.7
	c-3.1-13.4-5.9-25.7-8.7-38c-2.2-13.3-4.5-26.5-6.7-39.8c-1.5-7.6-3-15.2-4.5-22.4c-27.4,0-53.9,0-81.7,0c1.7,2.1,2.8,3.5,3.9,4.8
	c0.1,11.8,2.3,24,0.1,35.3c-9.6,50-19.8,99.8-31.1,149.4c-2.9,12.6-10.5,24.1-16,36.2c-1,0.9-2.1,1.7-4.4,3.7c23.5,0,45.2,0,67.7,0
	c-1.9-5.7-3.8-11.1-5.6-16.5c4.6-27.3,9.3-54.6,13.9-81.8c2.8-16.6,5.7-33.3,8.5-49.9c2.5-7.1,5.1-14.2,8.7-24.2
	c2.4,12.3,4.1,21.8,6.3,31.1c1.9,8.2,4.5,16.3,6.9,24.5c0.3,2.8,0.5,5.6,0.8,8.5c4.7,27.1,9.4,54.2,14.2,81.2
	c0.9-0.1,1.8-0.2,2.7-0.3c0.3-1.5,0.6-3,0.9-4.5c28.6-45.8,57.1-91.6,85.7-137.4c1.1,0.5,2.2,1,3.4,1.5c-0.3,3-0.5,6.1-1,9
	c-3.6,18.1-6.7,36.4-11.2,54.3c-8.7,34.1-9.7,70.6-30.9,100.9c-1.2,0.8-2.3,1.6-5.2,3.5c26,0,49.8,0,72.4,0
	c-0.7-9.8-1.8-19.6-1.8-29.4c0-7.1,1.4-14.1,2.2-21.2L251.8,188.2z M670.7,70.3c0,0-0.2,0.5-0.2,0.5c1.8-6.3,3.5-12.7,5.6-20.1
	c-34.5,0-67.6,0-100.4,0c1,7.4,1.9,14.7,2.9,22l0.1-0.5c-3.6,17.1-7.3,34.2-10.9,51.3c-2.9,15.5-4.9,31.2-9,46.3
	c-3.2,11.9-8.8,23.1-13.4,34.6c-1,1.5-1.9,3-3.3,5.1c32.7,0,64.3,0.1,95.9-0.2c2.4,0,4.8-3.2,7.3-4.9c3.1-10.3,6.3-20.6,10.1-33.2
	c-8.5,5.5-14.1,9.1-19.7,12.7c-14.4,1-28.8,2.1-43.3,3.1c0-6.2,0-10.1,0-14c1.9-7.5,4.2-15,5.6-22.6c1.2-6.6,4.5-10.1,11.2-9.4
	c13.2,1.4,26.5,3.2,41.4,5c1.9-9.5,4.3-21.6,7-35.6c-4,1.7-5.7,2.3-7.4,3c-14.4,2-28.8,4-44.5,6.2c1-9.1,1.6-15,2.3-21
	c1.3-5.8,2.5-11.5,3.8-17.3c2.3-2.6,4.7-7.5,7-7.5c17.2,0.1,35.9-4.7,50.2,13.6C669.7,80.5,670.2,75.4,670.7,70.3z M394.7,55.1
	c1-0.9,2.1-1.8,4.1-3.6c-20.7,0-39.8,0-61.1,0c2.9,2,4.1,2.8,5.3,3.6c-1.8,4.9-3.2,9.9-5.5,14.5c-13.7,27-27.2,54.1-41.5,80.9
	c-9.9,18.6-20.8,36.7-31.3,55c-1.9,0.8-3.7,1.7-5.6,2.5c0.1,0.4,0.3,0.9,0.4,1.3c17.1,0,34.1,0,51.2,0c0.1-0.4,0.3-0.9,0.4-1.3
	c-1.8-0.8-3.6-1.7-5.4-2.5c0-4.8-1.5-10.2,0.1-14.4c4.8-12.7,10.9-24.9,16.4-37.3c10.9-0.4,21.9-0.6,32.8-1.2
	c6.4-0.4,8.6,2.4,8.5,8.5c-0.2,12.6-0.1,25.2-0.1,37.7c-1.6,2.2-3.2,4.4-4.8,6.6c-2.2,0.8-4.4,1.6-6.7,2.3c0.1,0.5,0.3,0.9,0.4,1.4
	c19.4,0,38.9,0,56.6,0c-2.3-10.2-5.2-20.1-6.5-30.1c-1.7-12.5-2.4-25.2-3.1-37.8c-1.6-28.8-3-57.7-4.4-86.6
	C394.8,54.7,394.7,55.1,394.7,55.1z M563,56c2.1-1.8,4.2-3.5,6.7-5.6c-19.3,0-37.5,0-54.4,0c2.2,5.2,4.4,10.3,6.6,15.4
	c-1.9,5.5-3.4,11.2-5.9,16.4c-14.5,30.1-29.2,60-43.8,90c-1.6-3.2-4.3-6.4-4.6-9.7c-2.3-31.7-4.3-63.4-6.3-95.2
	c2.6-3.8,5.2-7.7,7.7-11.5c2.4-1.9,4.8-3.7,7.1-5.6c-21.2,0-42,0-64,0c2.6,3.2,4.3,5.4,6,7.6c0.6,0.5,1.2,1.1,1.8,1.6
	c5.3,49.9,10.7,99.8,16.1,150c13.5,0,25.9,0.2,38.3-0.2c2.2-0.1,4.3-3.2,6.5-4.9c19.8-37.9,39.2-75.9,59.4-113.6
	C546.9,78.8,555.4,67.7,563,56z M596.6,181.8c20.1-0.9,41.2,4.5,53.1-17.3c-9.3-21.3-27.5-18.3-45.7-17.8
	C601.6,158,599.3,169,596.6,181.8z"/>
<path d="M1268.6,114.7c-4.2-8.7-7-14.9-10.1-20.9c-7.6-14.6-22.6-20.4-38-14.7c-9.2,3.4-11.1,13.9-3.2,20.1c7,5.4,14.5,10,21.7,14.9
	c35.3,24.1,33.4,72-5,91.7c-12.8,6.5-28.5,9.4-43.1,9.9c-29.9,1.2-60-0.1-89.9-1c-3.5-0.1-8.2-3.6-9.9-6.8
	c-7.7-14.3-14.4-29.1-22.5-45.7c-4.8,18.7-8,35.3,0.6,52.7c-23.6,0-45.3,0-67,0c-0.2-0.8-0.7-1.6-0.5-1.9
	c18.9-22.4,19.8-51,26.3-77.6c4-16.1,7.7-32.4,9.7-48.8c1.6-13.2,0.3-26.7,0.3-40.8c20.1,0,42,0,66.7,0
	c-15.9,15.7-19.6,34.9-22.5,49.4c11.3-9.8,25.2-21.9,39.6-34.5c-6-5.4-10.7-9.6-17-15.3c32.6,0,63.2,0,95.9,0
	c-3.2,2.2-5.2,3.8-7.4,5c-33.6,17.9-58.7,46.2-87.4,70.3c-1.4,1.2-2.3,4.9-1.5,6.5c12.6,24.1,25.6,48.1,38.5,72.1
	c1.1-0.2,2.2-0.5,3.3-0.7c3.1-16.9,6.2-33.7,9.4-50.6c0.6-0.1,1.3-0.2,1.9-0.3c2.9,5.7,5.7,11.4,8.6,17.1
	c8.5,16.7,27.9,23.4,44.9,15.4c9.1-4.3,11-16.3,3.1-22.5c-7.4-5.8-15.5-10.8-23.2-16.2c-32.8-22.6-31.3-66.7,3.7-86.6
	c25.7-14.7,53-13.5,80.3-4.4c2.3,0.8,5.4,4.6,5.1,6.4C1276.7,75.2,1272.8,93.6,1268.6,114.7z M1044.5,82.1
	c-3.3,16.8-6.6,33.5-9.9,50.3c-2.6,11.9-4.7,24.1-8,35.8c-3.1,11-7.6,21.6-11.4,32.4c-1.8,2.6-3.5,5.2-5.9,8.6c18.2,0,35.1,0,50.9,0
	c0-12.4,0-24.2,0-36c2.1-8,4.2-16,6.8-26.1c2.4,3.6,3.6,5.3,4.7,7c5.9,13,11.9,26,17.8,39c1.9,3.3,3.8,6.6,5.7,10
	c1.7,2.2,3.4,6.2,5.2,6.3c16.1,0.5,32.1,0.3,45.1,0.3c-2.4-3.4-5.8-8.2-9.1-12.9c-11.7-21-23-42.2-35.1-63
	c-4.8-8.3-2.6-13.6,4.1-19.3c10.6-9,20.5-18.9,31.3-27.8c12.7-10.5,25.9-20.4,38.9-30.6c2.5-1.8,5-3.6,7.8-5.6
	c-21.9,0-42.9,0-66.5,0c4.2,2.2,6.6,3.4,8.9,4.6c-0.7,3.8-1.4,7.7-2,11.5c-16,15.4-32.1,30.8-49.2,47.2c-0.3-3.4-0.5-5.2-0.6-7.1
	c0.9-3.1,1.6-6.3,2.6-9.3c4.6-14.1,9.3-28.2,13.9-42.3c2.1-0.7,4.2-1.5,6.4-2.2c-0.9-0.8-1.9-1.5-2.8-2.3c-17,0-34,0-49.6,0
	c0,11,0,21.5,0,32L1044.5,82.1z M1266.8,53c-4.3-1.2-8.5-3.3-12.8-3.3c-11.2,0.2-22.4,1.5-33.6,2.3c-25.4,2.4-43.1,17.8-46.7,42.4
	c-2.2,15.2,1.3,29,15.6,38.2c9.6,6.1,19.1,12.6,27.8,19.9c12.6,10.5,8.8,28.1-6.7,34c-16.4,6.2-38.4,0.5-45.8-13.6
	c-1.1-2-3.5-3.3-5.7-5.3c-2.5,10.9-5.1,20.5-6.6,30.4c-0.4,2.4,2.4,7.3,4.7,7.9c24.9,7.2,49.6,8.5,73.9-3.2
	c32.7-15.7,37.8-59.3,9.1-80.7c-7.3-5.4-15.2-10.1-22.7-15.3c-12.3-8.6-14.1-22.8-3.1-28.9c16.3-9.1,33.3-9.3,46.3,6.9
	c1.5,1.9,3.1,3.8,4.6,5.7c0.9,0,1.8,0,2.8,0c1.9-10.6,4.2-21.2,5.4-31.9C1273.6,57,1269.1,54.9,1266.8,53z"/>
<path d="M833.1,45.5c21.5,0,43.5,0,65.4,0c-26.2,42.4-26.9,91.3-37.4,137.5c-2.2,9.8,1,20.9,1.8,32.6c-21.5,0-43.9,0-66.3,0
	c-5.5,0-11.1,0-16.6,0.3c-16.6,0.9-27.1-7.1-33-22.2c-5.9-15.1-12-30.1-19.3-44.9c-4.4,21.7-14.2,42.7-3.1,65.9c-23,0-44.6,0-66,0
	c25.9-43.6,27.7-93.5,37.6-141.1c1.8-8.6-1.5-18.3-2.7-29.3c29.7,1.1,60,0.6,89.9,3.9c23.5,2.6,32.7,18.8,28.4,42.4
	c-4,22-16.9,36.8-38.2,46.5c15.4,18.8,13.3,45.8,32.5,66c3.2-8.6,6-14.1,7.2-19.9c7.8-36.3,15.8-72.5,22.5-109
	C837.5,65.2,834.2,55.3,833.1,45.5z M841,80.1c-4,20-7.9,40.1-11.9,60.1c-5.5,20.5-11,40.9-16.5,61.4c-2.2,2.2-4.4,4.4-7.6,7.6
	c19,0,35.8,0,51.7,0c0-11.4-1-22.3,0.2-33c1.6-14.1,4.9-28.1,7.4-42.1c4.6-19.2,8.7-38.5,13.9-57.6c2-7.2,6.2-13.9,9.5-20.8
	c1-1.8,1.9-3.5,2.8-5.1c-17.6,0-34.6,0-49.8,0c0,10.3,0,20.2,0,30.1L841,80.1z M774.3,147.7c-2.9-4.1-5.7-8.2-8.9-12.7
	c4.5-2.3,7.8-4.4,11.4-5.7c11.2-4.2,18.6-12.3,24.3-22.5c14.3-25.6,5.8-49-19.7-53.7c-27.4-1.2-54.8-2.3-81.5-3.4
	c0,14.3,0,27,0,39.8c-7.3,33.6-14.4,67.2-22.1,100.8c-1,4.5-4.7,8.3-7.2,12.4c-1.2,2-2.5,4.1-4.1,6.6c17.5,0,33.8,0,49.4,0
	c-0.8-8.4-1.6-16.4-2.3-24.3c2.1-10.1,3.9-20.4,6.6-30.3c1-3.9,4-7.4,6-11c3.6,2.8,8.8,4.9,10.6,8.7c5.9,12.6,11.5,25.5,15.6,38.8
	c3.8,12.4,12.5,18,23.8,20.1c9,1.6,18.2,1.3,24.6-7.3c-4.3-6.7-9.4-13-12.6-20.1C783,171.9,778.9,159.7,774.3,147.7z"/>
<path d="M1017.2,111.2c-2.8-5.8-5.6-11.6-8.5-17.3c-7.2-14.3-16.7-19.1-32.7-16.7c-15.1,2.3-27.9,9.6-34.2,23.3
	c-6.5,14.3-11.1,29.7-14.2,45.2c-2.4,12.1-1.8,26,11.3,32.8c14.1,7.3,29.2,6.7,42.7-2.3c5.6-3.7,10.2-9.1,14.9-13.9
	c4.5-4.6,8.6-9.6,14.8-16.6c-0.5,4.9-0.6,7.1-1.1,9.3c-3.5,15.5-6.9,31.1-10.9,46.5c-0.8,3.1-3.8,7.1-6.6,8
	c-25.4,8.1-51.2,9.9-76.8,1.9c-21.7-6.7-34.7-22.2-36.2-45c-2.7-40.2,8.3-76,40.8-101.7c30.2-23.9,65.3-24.9,101.3-15.9
	c6.6,1.7,9.3,4.7,7.3,12.6c-4.1,16.3-6.6,32.9-9.8,49.4C1018.6,111,1017.9,111.1,1017.2,111.2z M916.1,205.6
	c16.6,7,33.8,7.5,51.2,3.9c2.9-0.1,6.2,0.6,8.7-0.4c6.4-2.7,15.3-4.6,17.9-9.6c4.4-8.5,4.7-19.1,6.7-28.8c-5.6,1.5-8.9,4.6-12.7,6.8
	c-6.4,3.8-12.7,8.2-19.6,10.4c-16.8,5.3-43.2-4.5-44.9-23.1c-2.6-28.9,1.8-55.8,23-77.8c20.2-20.8,47.9-20.3,66.2,1.7
	c0.7,0.9,2.1,1.1,4.9,2.5c1.2-7.1,2.2-13.4,3.3-19.6c0.7-2.1,1.2-4.3,2.1-6.3c4-8.6,0.3-13.3-8.1-13.6c-17.6-0.7-35.3-0.6-53-0.6
	c-1.9,0-3.8,1.8-5.7,2.8c-19.5,3.4-34.9,13.8-47.1,28.9c-13.5,16.7-19.5,36.8-23.3,57.4C880.4,170.8,890.3,191.5,916.1,205.6z"/>
<path d="M649,10.5c0,10.2-6.8,16.7-15.7,16.8c-7.9,0.1-13.6-5-13.4-12.1c0.2-7.9,7.9-14.9,16.4-14.6C643.6,0.9,648.7,4.2,649,10.5z
	 M635,5.1c-3.2,4.4-5.7,7-6.8,10c-0.3,0.8,4.4,4.9,5.3,4.5c2.9-1.5,5.6-4.1,7.3-6.9C641.3,12,638.1,9,635,5.1z"/>
<path d="M668.4,0.6c6.4,0.7,11.8,3.4,11.9,11.7c0.1,8.3-6.9,15-15.7,15.1c-8,0.1-13.5-4.8-13.3-12.1C651.5,7.4,659.1,0.6,668.4,0.6z
	 M675.8,14c-4.6-3.2-7.2-6.2-8.5-5.7c-3.1,1.2-5.5,4.1-8.1,6.2c1.8,1.8,3.7,5.3,5.2,5.1C667.6,19.2,670.4,16.8,675.8,14z"/>
<path d="M417.7,14.8c-2.7,4.6-5.2,8.8-7.6,12.9c-1.4-0.6-2.8-1.2-4.1-1.8c1.6-7.1,2.8-14.2,5-21.1c0.4-1.1,6.2-2,7.9-0.8
	c2.9,2,4.6,5.8,6.7,8.6c2.8-4.4,5.2-8.2,7.6-12c1.3,0.6,2.6,1.2,4,1.8c-1.6,7-2.8,14.2-5.1,21c-0.4,1.1-6.1,2-7.7,0.7
	C421.6,22,420,18.1,417.7,14.8z"/>
<path d="M606.5,26.7c0.4-3.6,0.8-6.4,1.1-9.2c-0.7-0.6-1.5-1.1-2.2-1.7c-4,3.9-8,7.9-13,12.7c-1.6-14.7,2.2-25,8.7-26.4
	c1.3,2.6,2.6,5.1,3.8,7.7c2-1.9,3.9-3.9,6.1-5.5c1.7-1.3,3.8-2.2,6.3-3.5C618.3,16.9,615,25.3,606.5,26.7z"/>
<path d="M352.6,5.1c2-1.1,4.1-2.3,6.1-3.4c0.8,2.5,1.6,4.9,3,9.3c4.3-3.4,8.5-6.7,14.1-11c-0.7,20.7-3,25.8-10.8,26.1
	c0-2.8,0-5.6,0-8.3c-0.7-0.6-1.3-1.2-2-1.7c-3.9,3.9-7.7,7.7-11.6,11.6c-0.9-0.5-1.8-0.9-2.7-1.4c1.3-7.1,2.7-14.2,4-21.3
	C352.7,4.9,352.6,5.1,352.6,5.1z"/>
<path d="M449.1,1.9c-0.9,6.4-1.7,11.6-2.5,17.3c8.5,1.6,7.4-4.7,8.7-8.7c1.4-4.1,0.7-10.4,9.3-7.8c-1.3,6-2,11.8-3.9,17.1
	c-2.5,7-8.5,8.8-15.2,7.3c-7.1-1.5-8.2-6.9-6.2-12.9C441,9.4,438.8,1.2,449.1,1.9z"/>
<path d="M506.4,26.1c5.1-8,9-14.7,13.5-20.9c1.3-1.8,4.2-3.1,6.3-3.2c1.2,0,3,3,3.5,4.9c1.3,5,2.5,10.2,2.9,15.3
	c0.1,1.4-3.1,3-4.9,4.5c-5.4-8.2-10.6-3.2-16,0.1C511,27.3,509.4,26.6,506.4,26.1z"/>
<path d="M568.6,5.1c-4.8,1.7-7.5,2.7-8.4,3.1c1.1,4.4,4.3,9.7,2.9,13.2c-1.2,3-7.6,4.4-11.9,5.4c-1.4,0.3-3.6-2.8-5.4-4.3
	c2.2-0.9,4.4-1.9,6.7-2.7c1.1-0.4,2.4-0.2,1.4-0.1c-1.1-5.2-4.6-11.4-2.8-14.9C554-0.8,560.6-0.8,568.6,5.1z"/>
<path d="M475.1,18.3c1.7,2.1,3.4,4.2,5.2,6.3c-4.6,1.1-9.3,2.3-14.1,3.5c-2.1-21.9,3-28.6,20.5-24.5c-4.6,2.5-7.4,4.1-10,5.5
	c1.5,1.2,3.5,2.7,5.6,4.3C479.6,15.1,477,17,475.1,18.3z"/>
<path d="M386.4,18.4c1.9,1.7,3.9,3.7,6,5.6c-4.7,1.3-9.5,2.7-15,4.2c2.6-27.4,3.4-30,21-24c-4.2,2.1-7,3.4-10.1,4.9
	c1.8,0.9,4,2,8.3,4.1C391.8,15.6,388.7,17.2,386.4,18.4z"/>
<path d="M590.9,4.4c-6.3,4.4-10.3,7.2-14.3,10.1c3.1,2.5,6.3,4.9,11.3,8.8c-0.1,4-4.8,4.7-9.7,3.9c-6.6-1.1-10.2-5.3-9.8-12.2
	C568.8,7.2,576,0.3,584,0.8C586.9,1,589.5,3.7,590.9,4.4z"/>
<path d="M492.7,27c-1.9-7.9-3.8-15.9-5.7-23.9c7.6-1,7.6-1,10.3,9.5c5.8-1.8,4.9-13.8,16-9.6c-5.8,8.7-11.2,16.8-16.6,24.9
	C495.3,27.6,494,27.3,492.7,27z"/>
<path d="M352.7,4.9c-7.6,1.7-9.2,7.6-10.7,14.1c-0.7,3.1-3.2,5.8-4.9,8.7c-0.9-0.5-1.9-0.9-2.8-1.4c0-7.4,0-14.7,0-23.9
	c5-0.8,11.8-3.6,18.2,2.7C352.6,5.1,352.7,4.9,352.7,4.9z"/>
<path d="M693.4,2.8c-0.4,2.5-0.7,5-1.1,7.5c-0.5,2.6-1,5.1-1.4,7c2.1,2.7,3.9,5,5.7,7.4c-4.3,1.1-8.7,2.3-13.1,3.5
	C681.1,12.8,685.3,2.5,693.4,2.8z"/>
<path d="M296.8,15c-4,7.7-9.5,15-11.6,23.2c-7.7,30.3-14.2,60.9-21.2,91.3c-0.6,2.8-1.6,5.6-2.4,8.4c-3.3,16.8-6.6,33.5-9.9,50.3
	c0,0,0.2-0.5,0.2-0.5c-5.8,15.8-6.7,31.9-2.2,48.9c-21.8,0-42.5,0-63.3-0.1c-0.7,0-1.4-1.1-2.1-1.7c21.1-30.3,22.2-66.8,30.9-100.9
	c4.6-17.9,7.6-36.2,11.2-54.3c0.6-3,0.7-6,1-9c-1.1-0.5-2.2-1-3.4-1.5c-28.6,45.8-57.1,91.6-85.7,137.4c-1.2-3.2-2.8-6.4-3.6-9.7
	c-4.8-22.2-9.5-44.5-14.2-66.7c-0.3-2.8-0.5-5.6-0.8-8.5c-4.2-21.5-8.4-42.9-12.5-64.4c-0.6,0-1.2,0.1-1.9,0.1
	c-2.5,11-4.9,22-7.4,33c-2.8,16.6-5.7,33.3-8.5,49.9c-4.6,27.3-9.3,54.6-13.9,81.8c0.3,4.6,0.7,9.3,1.1,14.7
	c-17.6,0-34.7,0.1-51.8-0.1c-2.3,0-4.6-1.2-7-1.9c5.5-12,13.1-23.6,16-36.2c11.3-49.6,21.6-99.4,31.1-149.4C67.3,38,65.2,25.8,65,14
	c1.3-1.1,2.6-3,3.9-3c22.3-0.1,44.6-0.1,67,0.3c2.1,0,4.9,3.1,6,5.4c2.3,4.8,3.6,10,5.4,15c2.2,13.3,4.5,26.5,6.7,39.8
	c2.1,14.2,4.3,28.4,6.4,42.7c1.1,0,2.2,0,3.3,0c1.4-3.1,2.7-6.3,4.1-9.4c16-25.8,31.9-51.7,47.9-77.5c3.4-5.5,7.1-10.8,10.6-16.2
	c21.4,0,42.9-0.1,64.3,0.2C292.6,11.2,294.7,13.7,296.8,15z"/>
<path d="M264.6,205.5c10.5-18.3,21.4-36.4,31.3-55c14.2-26.7,27.8-53.8,41.5-80.9c2.3-4.6,3.7-9.7,5.5-14.5c2.3-0.8,4.6-2.2,6.9-2.2
	c12.3-0.2,24.7-0.2,37,0c2.7,0.1,5.3,1.5,7.9,2.3c0,0,0.2-0.4,0.2-0.4c-0.8,3.6-2.4,7.3-2.3,10.9c0.3,12,1.1,24,2,36
	c2.6,35.1,5.4,70.2,8.2,105.9c-8.2,0-18.9,0.2-29.5-0.1c-4.9-0.1-9.8-1.2-14.7-1.9c1.6-2.2,3.2-4.4,4.8-6.6
	c0.8-12.1,1.5-24.1,2.4-36.2c0.7-8.9-2.4-13.2-12.1-12.3c-7.7,0.7-15.5-0.1-23.2,0.3c-2.8,0.2-5.5,2-8.2,3.1
	c-5.6,12.4-11.6,24.6-16.4,37.3c-1.6,4.2-0.2,9.5-0.1,14.4C291.9,205.5,278.3,205.5,264.6,205.5z M355.5,83.4
	c-6.5,13-12.9,25.9-19.4,38.9c-1.2,2.5-2.4,5-4.4,9.1c9.8,0,17.9,0.4,25.9-0.3c2.1-0.2,5.7-3.8,5.7-5.7c-0.5-16.8-1.6-33.5-2.6-50.3
	c-0.9-0.1-1.7-0.2-2.6-0.3C357.2,77.7,356.3,80.6,355.5,83.4z"/>
<path d="M420.1,59.7c-0.6-0.5-1.2-1.1-1.8-1.6c1.8-1.8,3.5-5.1,5.4-5.1c13.6-0.4,27.3-0.3,41,0c1.5,0,3,2,4.5,3.1
	c-2.6,3.8-5.2,7.7-7.7,11.5c-0.5,4.1-1.8,8.3-1.5,12.4c1,18.5,2.3,37,3.7,55.5c1.1,14.3,2.5,28.5,3.7,42.8c0.6,0,1.3,0,1.9,0.1
	c1-2,2-3.9,3-5.9c14.6-30,29.4-60,43.8-90c2.5-5.2,4-10.9,5.9-16.4c0-4.2,0-8.4,0-13.2c12.3,0,24.2-0.1,36,0.1
	c1.7,0,3.4,2.1,5.1,3.2c-7.6,11.6-16.1,22.7-22.6,34.9c-20.2,37.6-39.7,75.7-59.4,113.6c-14.2,1.4-28.3,2.8-42.4,4.3
	c-1-4.6-1.8-6.8-2-9c-2.8-30.1-5.1-60.3-8.4-90.4C426.3,92.7,422.8,76.2,420.1,59.7z"/>
<path d="M635.7,184c5.6-3.6,11.2-7.2,19.7-12.7c-3.8,12.6-6.9,22.9-10.1,33.2c-3.2,1-6.5,2.9-9.7,2.9c-27.2,0.3-54.5,0.3-81.7,0
	c-2.8,0-5.6-1.9-8.4-3c4.6-11.5,10.2-22.7,13.4-34.6c4-15.2,6.1-30.9,9-46.3c3.6-17.1,7.3-34.2,10.9-51.3c0,0-0.1,0.5-0.1,0.5
	c0.5-6.3,1-12.6,1.6-19.3c30,0,60.9,0,92.3,0c-0.7,6.5-1.3,11.9-1.9,17.4c0,0,0.2-0.5,0.2-0.5c-1.3,3.1-2.5,6.3-3.3,8.2
	c-8-2.2-15.2-5.2-22.6-6.1c-8-1-16.2,0.3-24.3,0c-6.9-0.3-9.7,2.3-8.6,9.1c-1.3,5.8-2.5,11.5-3.8,17.3c-1.7,6.6-3.4,13.2-5.4,21.3
	c7.5,0,13,0.7,18.3-0.2c9.8-1.6,19.5-4.2,29.3-6.4c1.7-0.7,3.4-1.4,7.4-3c-2.8,14-5.1,26.1-7,35.6c-15-1.8-28.2-3.6-41.4-5
	c-6.7-0.7-9.9,2.8-11.2,9.4c-1.4,7.6-3.7,15.1-5.6,22.6c-1.1,4.5-2.3,9.1-3.8,15.3C605.5,186.9,621.1,192,635.7,184z"/>
<path d="M358.5,205.5c4.9,0.6,9.8,1.7,14.7,1.9c10.6,0.3,21.3,0.1,29.5,0.1c-2.8-35.7-5.6-70.8-8.2-105.9c-0.9-12-1.7-24-2-36
	c-0.1-3.6,1.5-7.3,2.3-10.9c1.5,28.9,2.8,57.7,4.4,86.6c0.7,12.6,1.4,25.3,3.1,37.8c1.4,10,4.3,19.9,6.5,30.1c-17.8,0-37.2,0-56.6,0
	c-0.1-0.5-0.3-0.9-0.4-1.4C354.1,207.1,356.3,206.3,358.5,205.5z"/>
<path d="M420.1,59.7c2.7,16.6,6.2,33,8.1,49.7c3.3,30.1,5.6,60.3,8.4,90.4c0.2,2.2,1,4.4,2,9c14.1-1.4,28.2-2.8,42.4-4.3
	c-2.2,1.7-4.3,4.8-6.5,4.9c-12.4,0.5-24.7,0.2-38.3,0.2C430.8,159.5,425.4,109.6,420.1,59.7z"/>
<path d="M670.6,70.8c0.6-5.4,1.2-10.9,1.9-17.4c-31.3,0-62.2,0-92.3,0c-0.6,6.8-1.1,13.1-1.6,19.3c-1-7.3-1.9-14.6-2.9-22
	c32.8,0,65.9,0,100.4,0C674.1,58.2,672.3,64.5,670.6,70.8z"/>
<path d="M184.4,234.9c0.7,0.6,1.4,1.7,2.1,1.7c20.7,0.1,41.5,0.1,63.3,0.1c-4.6-17-3.6-33.1,2.2-48.9c-0.8,7.1-2.2,14.2-2.2,21.2
	c0,9.8,1.2,19.6,1.8,29.4c-22.6,0-46.4,0-72.4,0C182,236.5,183.2,235.7,184.4,234.9z"/>
<path d="M472.1,172.3c-1,2-2,3.9-3,5.9c-0.6,0-1.3,0-1.9-0.1c-1.2-14.2-2.6-28.5-3.7-42.8c-1.4-18.5-2.7-37-3.7-55.5
	c-0.2-4.1,1-8.3,1.5-12.4c2,31.7,4,63.5,6.3,95.2C467.8,165.9,470.6,169.1,472.1,172.3z"/>
<path d="M147.2,31.6c-1.7-5-3.1-10.2-5.4-15c-1.1-2.3-3.9-5.3-6-5.4c-22.3-0.5-44.6-0.4-67-0.3c-1.3,0-2.6,2-3.9,3
	c-1.1-1.3-2.2-2.7-3.9-4.8c27.8,0,54.3,0,81.7,0C144.2,16.4,145.7,24,147.2,31.6z"/>
<path d="M98.1,90.3c2.5-11,4.9-22,7.4-33c0.6,0,1.2-0.1,1.9-0.1c4.2,21.5,8.4,42.9,12.5,64.4c-2.3-8.2-4.9-16.2-6.9-24.5
	c-2.2-9.3-3.8-18.8-6.3-31.1C103.2,76.1,100.6,83.2,98.1,90.3z"/>
<path d="M545.4,204.5c2.8,1,5.6,3,8.4,3c27.2,0.2,54.5,0.2,81.7,0c3.3,0,6.5-1.9,9.7-2.9c-2.4,1.7-4.8,4.9-7.3,4.9
	c-31.6,0.3-63.2,0.2-95.9,0.2C543.5,207.5,544.5,206,545.4,204.5z"/>
<path d="M322.2,153.9c2.7-1.1,5.4-3,8.2-3.1c7.7-0.4,15.6,0.4,23.2-0.3c9.7-0.9,12.8,3.4,12.1,12.3c-0.9,12.1-1.6,24.1-2.4,36.2
	c0-12.6-0.1-25.2,0.1-37.7c0.1-6.1-2.1-8.9-8.5-8.5C344,153.3,333.1,153.5,322.2,153.9z"/>
<path d="M120.7,130.1c4.7,22.2,9.4,44.5,14.2,66.7c0.7,3.3,2.4,6.5,3.6,9.7c-0.3,1.5-0.6,3-0.9,4.5c-0.9,0.1-1.8,0.2-2.7,0.3
	C130.1,184.3,125.4,157.2,120.7,130.1z"/>
<path d="M563,56c-1.7-1.1-3.4-3.2-5.1-3.2c-11.9-0.3-23.7-0.1-36-0.1c0,4.7,0,9,0,13.2c-2.2-5.1-4.4-10.2-6.6-15.4
	c16.9,0,35.1,0,54.4,0C567.1,52.5,565.1,54.3,563,56z"/>
<path d="M296.8,15c-2.1-1.3-4.1-3.7-6.2-3.8c-21.4-0.3-42.9-0.2-64.3-0.2c1.5-0.8,3.1-2.2,4.6-2.2c23.1-0.1,46.2-0.1,70.7-0.1
	C299.6,11.2,298.2,13.1,296.8,15z"/>
<path d="M611.9,81.5c-1.1-6.8,1.7-9.4,8.6-9.1c8.1,0.3,16.3-1,24.3,0c7.5,0.9,14.7,3.9,22.6,6.1c0.8-1.9,2-5,3.3-8.2
	c-0.5,5.1-1,10.2-1.7,17.3c-14.3-18.3-32.9-13.5-50.2-13.6C616.6,74,614.2,78.9,611.9,81.5z"/>
<path d="M469,56c-1.5-1.1-3-3.1-4.5-3.1c-13.7-0.3-27.3-0.4-41,0c-1.8,0.1-3.6,3.3-5.4,5.1c-1.7-2.2-3.5-4.4-6-7.6c22,0,42.8,0,64,0
	C473.8,52.2,471.4,54.1,469,56z"/>
<path d="M18,234.9c2.3,0.6,4.6,1.8,7,1.9c17.1,0.2,34.2,0.1,51.8,0.1c-0.4-5.4-0.7-10.1-1.1-14.7c1.8,5.4,3.7,10.8,5.6,16.5
	c-22.5,0-44.2,0-67.7,0C15.9,236.6,16.9,235.7,18,234.9z"/>
<path d="M650.2,113.6c-9.8,2.2-19.5,4.7-29.3,6.4c-5.3,0.9-10.8,0.2-18.3,0.2c2.1-8.1,3.7-14.7,5.4-21.3c-0.7,6-1.3,11.9-2.3,21
	C621.5,117.6,635.9,115.6,650.2,113.6z"/>
<path d="M394.7,55.1c-2.6-0.8-5.3-2.2-7.9-2.3c-12.3-0.2-24.7-0.2-37,0c-2.3,0-4.6,1.5-6.9,2.2c-1.2-0.8-2.3-1.6-5.3-3.6
	c21.3,0,40.5,0,61.1,0C396.7,53.3,395.7,54.2,394.7,55.1z"/>
<path d="M264.6,205.5c13.7,0,27.3,0,41,0c1.8,0.8,3.6,1.7,5.4,2.5c-0.1,0.4-0.3,0.9-0.4,1.3c-17.1,0-34.1,0-51.2,0
	c-0.1-0.4-0.3-0.9-0.4-1.3C260.9,207.2,262.8,206.4,264.6,205.5z"/>
<path d="M635.7,184c-14.7,7.9-30.2,2.9-47.1,4.4c1.6-6.2,2.7-10.8,3.8-15.3c0,3.9,0,7.8,0,14C606.9,186.1,621.3,185.1,635.7,184z"/>
<path d="M167.7,104.7c-1.4,3.1-2.7,6.3-4.1,9.4c-1.1,0-2.2,0-3.3,0c-2.1-14.2-4.3-28.4-6.4-42.7c2.8,12.3,5.6,24.7,8.7,38
	C164.7,107.5,166.2,106.1,167.7,104.7z"/>
<path d="M578.7,72.3c-3.6,17.1-7.3,34.2-10.9,51.3C571.4,106.5,575.1,89.4,578.7,72.3z"/>
<path d="M251.8,188.2c3.3-16.8,6.6-33.5,9.9-50.3C258.4,154.7,255.1,171.5,251.8,188.2z"/>
<path d="M1015.1,200.6c3.9-10.8,8.3-21.4,11.4-32.4c3.3-11.7,5.4-23.8,8-35.8c3.3-16.8,6.6-33.5,9.9-50.3c0,0-0.2,0.5-0.2,0.5
	c1.2-9.7,2.5-19.3,3.9-29.9c10.6,0,22.5-0.1,34.5,0.1c2.6,0.1,5.1,1.5,7.7,2.3c-4.7,14.1-9.3,28.2-13.9,42.3c-1,3.1-1.7,6.2-2.6,9.3
	c-1,3.7-1.9,7.4-2.9,11.1c0.8,0.4,1.7,0.8,2.5,1.2c16.7-17.5,33.5-34.9,50.2-52.4c0.7-3.8,1.4-7.7,2-11.5
	c16.3-0.2,32.5-0.5,48.8-0.6c0.3,0,0.7,1,1,1.6c-13,10.2-26.2,20.1-38.9,30.6c-10.7,8.9-20.6,18.8-31.3,27.8
	c-6.6,5.6-8.9,11-4.1,19.3c12.1,20.8,23.4,42,35.1,63c1.3,3.4,2.7,6.8,4.3,10.8c-12.8,0-25.1,0.3-37.4-0.2c-2.7-0.1-5.4-2.8-8-4.3
	c-1.9-3.3-3.8-6.6-5.7-10c-5.9-13-11.9-26-17.8-39c-1.2-1.7-2.3-3.4-4.7-7c-2.6,10.1-4.7,18.1-6.8,26.1c-1.6,11-3.1,22.1-4.8,33.8
	c-12.3,0-26.5,0-40.7,0C1014.9,204.5,1015,202.5,1015.1,200.6z"/>
<path d="M1266.8,53c2.3,1.9,6.8,4,6.7,5.5c-1.3,10.7-3.5,21.3-5.4,31.9c-0.9,0-1.8,0-2.8,0c-1.5-1.9-3.1-3.8-4.6-5.7
	c-13-16.3-30-16-46.3-6.9c-11.1,6.2-9.2,20.4,3.1,28.9c7.5,5.2,15.4,9.8,22.7,15.3c28.7,21.4,23.6,65-9.1,80.7
	c-24.3,11.6-49,10.3-73.9,3.2c-2.2-0.6-5-5.5-4.7-7.9c1.5-9.8,4.1-19.5,6.6-30.4c2.3,2,4.7,3.3,5.7,5.3
	c7.4,14.2,29.5,19.9,45.8,13.6c15.5-5.9,19.2-23.5,6.7-34c-8.7-7.3-18.2-13.7-27.8-19.9c-14.4-9.2-17.9-23-15.6-38.2
	c3.6-24.6,21.4-40,46.7-42.4C1235.9,52.4,1251.3,52.7,1266.8,53z"/>
<path d="M1123.7,66.5c-16.7,17.5-33.5,34.9-50.2,52.4c-0.8-0.4-1.7-0.8-2.5-1.2c1-3.7,1.9-7.4,2.9-11.1c0.2,1.8,0.3,3.6,0.6,7.1
	C1091.6,97.3,1107.7,81.9,1123.7,66.5z"/>
<path d="M1090.4,55.1c-2.6-0.8-5.1-2.2-7.7-2.3c-12-0.2-23.9-0.1-34.5-0.1c-1.4,10.6-2.6,20.3-3.9,29.9c0-10.5,0-21,0-32
	c15.6,0,32.6,0,49.6,0c0.9,0.8,1.9,1.5,2.8,2.3C1094.6,53.6,1092.5,54.3,1090.4,55.1z"/>
<path d="M1015.1,200.6c-0.1,1.9-0.3,3.9-0.4,6.4c14.2,0,28.3,0,40.7,0c1.7-11.8,3.2-22.8,4.8-33.8c0,11.8,0,23.6,0,36
	c-15.7,0-32.7,0-50.9,0C1011.6,205.8,1013.4,203.2,1015.1,200.6z"/>
<path d="M1175.5,56c-0.3-0.6-0.7-1.6-1-1.6c-16.3,0.2-32.5,0.4-48.8,0.6c-2.3-1.2-4.7-2.4-8.9-4.6c23.6,0,44.7,0,66.5,0
	C1180.5,52.4,1178,54.2,1175.5,56z"/>
<path d="M1095.2,203c2.7,1.5,5.3,4.2,8,4.3c12.3,0.5,24.6,0.2,37.4,0.2c-1.6-4-2.9-7.4-4.3-10.8c3.3,4.7,6.7,9.5,9.1,12.9
	c-12.9,0-29,0.2-45.1-0.3C1098.6,209.2,1096.9,205.2,1095.2,203z"/>
<path d="M1044.5,82.1c-3.3,16.8-6.6,33.5-9.9,50.3C1037.9,115.7,1041.2,98.9,1044.5,82.1z"/>
<path d="M1071.7,154.1c5.9,13,11.9,26,17.8,39C1083.6,180.1,1077.7,167.1,1071.7,154.1z"/>
<path d="M1266.8,53c-15.4-0.3-30.9-0.6-46.3-0.9c11.2-0.8,22.4-2.1,33.6-2.3C1258.2,49.7,1262.5,51.9,1266.8,53z"/>
<path d="M781.4,53c25.4,4.8,33.9,28.2,19.7,53.7c-5.7,10.2-13.1,18.3-24.3,22.5c-3.5,1.3-6.8,3.4-11.4,5.7c3.2,4.6,6.1,8.7,8.9,12.7
	c5.7,16.4,11,32.9,17.3,49c1.2,3.1,6.1,4.7,9.3,6.9c-6.4,8.6-15.6,8.9-24.6,7.3c-11.3-2.1-20-7.6-23.8-20.1
	c-4.1-13.3-9.7-26.2-15.6-38.8c-1.8-3.7-6.9-5.8-10.6-8.7c-2.1,3.7-5,7.1-6,11c-2.6,10-4.4,20.2-6.6,30.3c-0.6,7.2-1.3,14.4-2,22.6
	c-11.5,0-24,0.2-36.6-0.2c-1.5,0-3-3.1-4.5-4.7c2.5-4.1,6.2-8,7.2-12.4c7.7-33.5,14.8-67.2,22.1-100.8c1.8-11.9,3.6-23.7,5.5-36.3
	C729.5,53,755.5,53,781.4,53z M731.4,96.8c-2,7.9-4.1,15.9-7,27.4c11.4-1.9,20.2-3.3,29-4.8c2.5-2,5.2-3.9,7.6-6.1
	c9.4-8.3,12.1-25.3,6.7-35.2c-5.3-9.7-14.6-4.8-21.9-6.7c-2.5-0.7-7.9,3.5-9.4,6.7C733.6,83.9,732.9,90.5,731.4,96.8z"/>
<path d="M887.8,55.7c-3.2,6.9-7.5,13.5-9.5,20.8c-5.2,19.1-9.3,38.4-13.9,57.6c-6.4,23.7-12.7,47.3-11.1,72.8c-13.7,0-28,0-43,0
	c1.1-2.4,1.7-3.8,2.4-5.2c5.5-20.5,11-40.9,16.5-61.4c4-20,7.9-40.1,11.9-60.1c0,0-0.2,0.5-0.2,0.5c1.1-9.1,2.2-18.1,3.4-28
	c12,0,25-0.1,38,0.1C884,52.8,885.9,54.7,887.8,55.7z"/>
<path d="M781.4,53c-25.9,0-51.9,0-76,0c-1.9,12.6-3.7,24.5-5.5,36.3c0-12.7,0-25.5,0-39.8C726.6,50.7,754,51.9,781.4,53z"/>
<path d="M812.7,201.6c-0.7,1.4-1.3,2.8-2.4,5.2c15.1,0,29.3,0,43,0c-1.6-25.5,4.8-49.1,11.1-72.8c-2.6,14-5.8,28-7.4,42.1
	c-1.2,10.7-0.2,21.7-0.2,33c-16,0-32.8,0-51.7,0C808.2,206,810.5,203.8,812.7,201.6z"/>
<path d="M887.8,55.7c-1.9-1-3.8-2.9-5.7-2.9c-13-0.3-26-0.1-38-0.1c-1.2,9.9-2.3,18.9-3.4,28c0-9.9,0-19.8,0-30.1
	c15.2,0,32.2,0,49.8,0C889.7,52.1,888.8,53.9,887.8,55.7z"/>
<path d="M670.7,202.5c1.5,1.6,2.9,4.7,4.5,4.7c12.5,0.4,25.1,0.2,36.6,0.2c0.7-8.2,1.4-15.4,2-22.6c0.8,8,1.5,15.9,2.3,24.3
	c-15.6,0-32,0-49.4,0C668.2,206.6,669.5,204.6,670.7,202.5z"/>
<path d="M841,80.1c-4,20-7.9,40.1-11.9,60.1C833.1,120.2,837,100.2,841,80.1z"/>
<path d="M1020.9,71.7c-1,6.3-2.1,12.5-3.3,19.6c-2.8-1.4-4.2-1.6-4.9-2.5c-18.2-22-46-22.6-66.2-1.7c-21.3,22-25.7,48.8-23,77.8
	c1.7,18.6,28.1,28.4,44.9,23.1c6.9-2.2,13.2-6.6,19.6-10.4c3.8-2.3,7.1-5.3,12.7-6.8c-2,9.7-2.3,20.3-6.7,28.8
	c-2.6,5-11.5,6.9-17.9,9.6c-2.5,1.1-5.8,0.3-8.7,0.4c-17.1-1.3-34.1-2.6-51.2-3.9c-25.8-14.1-35.7-34.8-30.2-65.2
	c3.7-20.7,9.8-40.7,23.3-57.4c12.2-15.1,27.6-25.5,47.1-28.9c22.3-4.2,44.5-5.2,66,2.5C1021.7,62.8,1021.3,67.3,1020.9,71.7z"/>
<path d="M1020.9,71.7c0.4-4.5,0.8-8.9,1.3-15.2c-21.5-7.7-43.6-6.7-66-2.5c1.9-1,3.8-2.8,5.7-2.8c17.7,0,35.3-0.1,53,0.6
	c8.4,0.3,12.1,5,8.1,13.6C1022.1,67.4,1021.6,69.6,1020.9,71.7z"/>
<path d="M916.1,205.6c17.1,1.3,34.1,2.6,51.2,3.9C949.9,213,932.7,212.6,916.1,205.6z"/>
<path d="M336,122.3c6.5-13,12.9-25.9,19.4-38.9c1.3,0.6,3.6,1.1,3.6,1.7c0.9,14.4,1.6,28.8,2.4,44.3c-7.5,0-13.6-0.3-19.6,0.1
	C336.2,129.8,335.4,126.8,336,122.3z M354.9,124.6c0-8.6,0-17.1,0-25.6c-0.5-0.1-0.9-0.1-1.4-0.2c-3.9,8.4-7.8,16.7-12,25.8
	C346.6,124.6,350.4,124.6,354.9,124.6z"/>
<path d="M336,122.3c-0.7,4.5,0.1,7.5,5.8,7.2c6.1-0.3,12.2-0.1,19.6-0.1c-0.8-15.5-1.5-29.9-2.4-44.3c0-0.7-2.4-1.2-3.6-1.7
	c0.9-2.9,1.7-5.7,2.6-8.6c0.9,0.1,1.7,0.2,2.6,0.3c1,16.8,2.1,33.5,2.6,50.3c0.1,2-3.5,5.6-5.7,5.7c-8,0.7-16.1,0.3-25.9,0.3
	C333.7,127.3,334.9,124.8,336,122.3z"/>
<path d="M731.4,96.8c1.5-6.3,2.2-13,4.9-18.7c1.5-3.2,6.9-7.3,9.4-6.7c7.3,1.9,16.6-3,21.9,6.7c5.4,9.9,2.8,26.9-6.7,35.2
	c-2.4,2.1-5.1,4-7.6,6.1c-8.1,0.7-16.2,1.3-25.1,2.1C729.4,111.9,730.4,104.4,731.4,96.8z M733.3,115.6c4.5,0,7.7,0.2,10.9,0
	c13.2-1.1,21.6-12.7,20.6-28.2c-0.6-8.9-5.6-11.5-21.2-10.7c-0.6,0-1.2,0.5-2.2,1C738.8,89.7,736.2,102.1,733.3,115.6z"/>
<path d="M731.4,96.8c-1,7.6-2,15.1-3.2,24.7c8.9-0.7,17-1.4,25.1-2.1c-8.8,1.5-17.6,2.9-29,4.8C727.3,112.7,729.3,104.8,731.4,96.8z
	"/>
</svg>
