<?xml version="1.0" encoding="utf-8"?>
<!-- Generator: Adobe Illustrator 21.1.0, SVG Export Plug-In . SVG Version: 6.00 Build 0)  -->
<svg version="1.1" id="Layer_1" xmlns="http://www.w3.org/2000/svg" xmlns:xlink="http://www.w3.org/1999/xlink" x="0px" y="0px"
	 viewBox="0 0 100 100" style="enable-background:new 0 0 100 100;" xml:space="preserve">
<style type="text/css">
	.st0{fill:#FFFFFF;}
</style>
<g>
	<polygon class="st0" points="49.5,76.6 49.5,76.6 13.8,40.9 22.2,32.5 49.5,59.9 76.9,32.5 85.3,40.9 49.5,76.6 	"/>
	<path d="M22.2,33.2l26.6,26.6l0.7,0.7l0.7-0.7l26.6-26.6l7.7,7.7l-35,35l0,0l0,0l-35-35L22.2,33.2 M76.9,31.8L49.5,59.1L22.2,31.8
		l-9.1,9.1l36.5,36.5l0,0l0,0L86,40.9L76.9,31.8L76.9,31.8z"/>
</g>
</svg>
