<?xml version="1.0" encoding="utf-8"?>
<!-- Generator: Adobe Illustrator 21.1.0, SVG Export Plug-In . SVG Version: 6.00 Build 0)  -->
<svg version="1.1" id="Layer_1" xmlns="http://www.w3.org/2000/svg" xmlns:xlink="http://www.w3.org/1999/xlink" x="0px" y="0px"
	 viewBox="0 0 500 500" style="enable-background:new 0 0 500 500;" xml:space="preserve">
<g>
	<path d="M77.4,155.7c0,0,14.6,0,36.3-0.4c0,0-0.2,6.6-0.2,19.7c0,0-4.8-0.2-16.2,0.1c0,0-0.1,5.6,0,15.4c1.3,0,6.5,0.1,15-0.2
		c0,0-0.1,7.9,0.1,19.2c0,0-4.5-0.2-14.7,0c0.1,6.6,0.2,14,0.4,22.1c-11.9-0.1-19.8,0.1-19.8,0.1S78.3,200.2,77.4,155.7z"/>
	<path d="M115.3,198.5c0-22.1,4.6-37.4,22.6-37.4c18.5,0,22.8,13.9,22.8,37.3c-0.2,26.2-7.3,35.6-22.7,35.6
		C121.4,234,115.4,221.6,115.3,198.5z M141,197.6c0-19.5-0.8-22.2-3-22.2c-2.7,0-3,3.6-3,22.9c0,19.5,0.9,22,3.2,22
		C140.2,220.3,141,218,141,197.6z"/>
	<path d="M183.2,209.1c0,0-0.7,0.1-1.4,0.1l0.4,21.5c0,0-7.8-0.1-18.5,0.1c0,0,0.5-26.5,0.4-68.6c6-1.1,11.3-1.7,16-1.7
		c18.4,0,26.8,8.7,26.8,25.2c0,8.7-3.2,14.5-8.4,18.2c0.8,2.6,3.9,12.4,10,29.2c0,0-6.8,0.5-18.8,1.2
		C189.7,234.3,187.4,224.5,183.2,209.1z M188,187c0-7-2-11.5-6.5-11.1c0.1,10.5,0.3,21.2,0.3,21.2C185.7,197,188,194.1,188,187z"/>
	<path d="M208,162.7c0,0,13.5,0.1,39.4-0.4c0,0-0.4,6.5-0.3,17.7c0,0-4-0.1-10.6-0.1c0,11.3,0.1,27.2,0.4,52.7c0,0-5.9-0.2-18,0.1
		c0,0,0.2-20.5-0.1-52.8l-10.7,0.1C208.1,180,208.3,175.6,208,162.7z"/>
	<path d="M249.9,165.4c0,0,7.2-0.5,17-0.8c0,0,4.2,12.7,11.9,34c-0.4-8.1-1.2-20.5-2.6-37.9c0,0,6.2,0.4,16.3,0.3
		c0,0,0.5,26.7,1.8,71.3c0,0-5,0.8-16.2,1.7c0,0-5-14.2-12.5-34.3c0.2,6.9,0.6,16.7,1.5,30.9c0,0-6.6-0.3-16.9-0.3
		C250.2,230.3,250.6,205.8,249.9,165.4z"/>
	<path d="M298.8,162.7c0,0,6.2,0,18.1-0.1c0,0,0.2,33.5,0.5,69.6c0,0-6-0.1-18.2,0C299.2,232.2,299.3,201.6,298.8,162.7z"/>
	<path d="M320.4,164.3c0,0,12.5,0.1,38.4-0.4c0,0-0.4,6.5-0.3,17.7c0,0-3.7-0.1-10.1-0.1c0,10.6,0.1,25.4,0.4,49.3
		c0,0-5.9-0.2-18,0.1c0,0,0.2-17.9-0.1-49.4c-3.2,0-7,0-10.2,0.1C320.5,181.6,320.7,177.2,320.4,164.3z"/>
	<path d="M361.4,159.1c0,0,8.9-0.1,34.2-0.3c0,0-0.1,7.7,0.2,18.6c0,0-10.1,0.1-15.6,0.3c-0.1,5.5,0,9.8,0,9.8c0.8,0,4.7,0.1,13-0.1
		c0,0-0.1,7.5,0.1,17.7c0,0-5.7-0.1-12.7-0.1c0,0,0,3.6,0.3,9.2c0,0,5.9,0.4,14.7,0.7c0,0-0.2,5.9-0.2,17.5c0,0-15.4-0.5-33.2-0.7
		C362.2,231.8,362,201.4,361.4,159.1z"/>
</g>
</svg>
